<svg width="150" height="150" viewBox="0 0 150 150" fill="none" xmlns="http://www.w3.org/2000/svg">
<path d="M73.1688 33.0813C74.3404 34.2533 74.9987 35.8427 74.9987 37.5C74.9987 39.1573 74.3404 40.7467 73.1688 41.9188L46.3375 68.75H118.75C120.408 68.75 121.997 69.4085 123.169 70.5806C124.342 71.7527 125 73.3424 125 75C125 76.6576 124.342 78.2473 123.169 79.4194C121.997 80.5915 120.408 81.25 118.75 81.25H46.3375L73.1688 108.081C74.3072 109.26 74.9372 110.839 74.923 112.478C74.9087 114.116 74.2514 115.684 73.0926 116.843C71.9338 118.001 70.3662 118.659 68.7275 118.673C67.0888 118.687 65.51 118.057 64.3313 116.919L26.8313 79.4188C25.6596 78.2467 25.0013 76.6573 25.0013 75C25.0013 73.3427 25.6596 71.7533 26.8313 70.5813L64.3313 33.0813C65.5033 31.9096 67.0927 31.2513 68.75 31.2513C70.4073 31.2513 71.9967 31.9096 73.1688 33.0813Z" fill="black"/>
</svg>
