<svg width="90" height="124" viewBox="0 0 90 124" fill="none" xmlns="http://www.w3.org/2000/svg">
<path d="M45 2.81242C33.4447 2.46342 22.2219 6.7067 13.788 14.6134C5.35421 22.5201 0.396448 33.4462 0 44.9999C0.396448 56.5537 5.35421 67.4797 13.788 75.3864C22.2219 83.2932 33.4447 87.5364 45 87.1874C56.5553 87.5364 67.7781 83.2932 76.212 75.3864C84.6458 67.4797 89.6036 56.5537 90 44.9999C89.6036 33.4462 84.6458 22.5201 76.212 14.6134C67.7781 6.7067 56.5553 2.46342 45 2.81242ZM7.03125 44.9999C7.15672 36.2356 10.6869 27.8639 16.875 21.6562L68.0062 73.1249C61.2424 77.7775 53.2091 80.2327 45 80.1562C35.3091 80.5063 25.8739 77.0041 18.7585 70.4158C11.643 63.8274 7.4265 54.6891 7.03125 44.9999ZM73.125 68.3437L21.9937 16.8749C28.7576 12.2223 36.7909 9.76715 45 9.84367C54.6909 9.49354 64.1261 12.9957 71.2415 19.5841C78.357 26.1725 82.5735 35.3107 82.9688 44.9999C82.8433 53.7642 79.313 62.1359 73.125 68.3437Z" fill="#FF0707"/>
<path d="M12.0568 102.812V100.545H25.5653V102.812H20.1193V118H17.4943V102.812H12.0568ZM34.8572 112.571V104.909H37.4141V118H34.9084V115.733H34.772C34.4709 116.432 33.9879 117.014 33.3232 117.48C32.6641 117.94 31.843 118.17 30.8601 118.17C30.0192 118.17 29.2749 117.986 28.6271 117.616C27.9851 117.241 27.4794 116.688 27.1101 115.955C26.7464 115.222 26.5646 114.315 26.5646 113.236V104.909H29.1129V112.929C29.1129 113.821 29.3601 114.531 29.8544 115.06C30.3487 115.588 30.9908 115.852 31.7805 115.852C32.2578 115.852 32.7322 115.733 33.2038 115.494C33.6811 115.256 34.076 114.895 34.3885 114.412C34.7067 113.929 34.8629 113.315 34.8572 112.571ZM46.9489 104.909V106.955H39.7983V104.909H46.9489ZM41.7159 101.773H44.2642V114.156C44.2642 114.651 44.3381 115.023 44.4858 115.273C44.6335 115.517 44.8239 115.685 45.0568 115.776C45.2955 115.861 45.554 115.903 45.8324 115.903C46.0369 115.903 46.2159 115.889 46.3693 115.861C46.5227 115.832 46.642 115.81 46.7273 115.793L47.1875 117.898C47.0398 117.955 46.8295 118.011 46.5568 118.068C46.2841 118.131 45.9432 118.165 45.5341 118.17C44.8636 118.182 44.2386 118.062 43.6591 117.812C43.0795 117.562 42.6108 117.176 42.2528 116.653C41.8949 116.131 41.7159 115.474 41.7159 114.685V101.773ZM58.0604 112.571V104.909H60.6172V118H58.1115V115.733H57.9751C57.674 116.432 57.1911 117.014 56.5263 117.48C55.8672 117.94 55.0462 118.17 54.0632 118.17C53.2223 118.17 52.478 117.986 51.8303 117.616C51.1882 117.241 50.6825 116.688 50.3132 115.955C49.9496 115.222 49.7678 114.315 49.7678 113.236V104.909H52.3161V112.929C52.3161 113.821 52.5632 114.531 53.0575 115.06C53.5518 115.588 54.1939 115.852 54.9837 115.852C55.4609 115.852 55.9354 115.733 56.407 115.494C56.8842 115.256 57.2791 114.895 57.5916 114.412C57.9098 113.929 58.0661 113.315 58.0604 112.571ZM64.0412 122.909V104.909H66.5298V107.031H66.7429C66.8906 106.759 67.1037 106.443 67.3821 106.085C67.6605 105.727 68.0469 105.415 68.5412 105.148C69.0355 104.875 69.6889 104.739 70.5014 104.739C71.5582 104.739 72.5014 105.006 73.331 105.54C74.1605 106.074 74.8111 106.844 75.2827 107.849C75.7599 108.855 75.9986 110.065 75.9986 111.48C75.9986 112.895 75.7628 114.108 75.2912 115.119C74.8196 116.125 74.1719 116.901 73.348 117.446C72.5241 117.986 71.5838 118.256 70.527 118.256C69.7315 118.256 69.081 118.122 68.5753 117.855C68.0753 117.588 67.6832 117.276 67.3991 116.918C67.1151 116.56 66.8963 116.241 66.7429 115.963H66.5895V122.909H64.0412ZM66.5384 111.455C66.5384 112.375 66.6719 113.182 66.9389 113.875C67.206 114.568 67.5923 115.111 68.098 115.503C68.6037 115.889 69.223 116.082 69.956 116.082C70.7173 116.082 71.3537 115.881 71.8651 115.477C72.3764 115.068 72.7628 114.514 73.0241 113.815C73.2912 113.116 73.4247 112.33 73.4247 111.455C73.4247 110.591 73.294 109.815 73.0327 109.128C72.777 108.44 72.3906 107.898 71.8736 107.5C71.3622 107.102 70.723 106.903 69.956 106.903C69.2173 106.903 68.5923 107.094 68.081 107.474C67.5753 107.855 67.1918 108.386 66.9304 109.068C66.669 109.75 66.5384 110.545 66.5384 111.455Z" fill="#FF0707"/>
</svg>
