<svg width="143" height="81" viewBox="0 0 143 81" fill="none" xmlns="http://www.w3.org/2000/svg">
<path d="M89.5 15H82V12.5C82 9.75 79.75 7.5 77 7.5H67C64.25 7.5 62 9.75 62 12.5V15H54.5C50.25 15 47 18.25 47 22.5V45C47 49.25 50.25 52.5 54.5 52.5H89.5C93.75 52.5 97 49.25 97 45V22.5C97 18.25 93.75 15 89.5 15ZM67 12.5H77V15H67V12.5ZM92 45C92 46.5 91 47.5 89.5 47.5H54.5C53 47.5 52 46.5 52 45V31L63.75 35H79.5C79.75 35 80 35 80.25 34.75L92 30.75V45Z" fill="black"/>
<path d="M5.20472 73V58.4545H6.96609V71.4375H13.7275V73H5.20472ZM19.4377 73.2557C18.7464 73.2557 18.119 73.1255 17.5556 72.8651C16.9921 72.5999 16.5447 72.2188 16.2132 71.7216C15.8818 71.2197 15.7161 70.6136 15.7161 69.9034C15.7161 69.2784 15.8392 68.7718 16.0854 68.3835C16.3316 67.9905 16.6607 67.6828 17.0726 67.4602C17.4846 67.2377 17.9391 67.072 18.4363 66.9631C18.9382 66.8494 19.4424 66.7595 19.949 66.6932C20.6119 66.608 21.1493 66.544 21.5613 66.5014C21.9779 66.4541 22.281 66.3759 22.4703 66.267C22.6645 66.1581 22.7615 65.9687 22.7615 65.6989V65.642C22.7615 64.9413 22.5698 64.3968 22.1863 64.0085C21.8075 63.6203 21.2322 63.4261 20.4604 63.4261C19.6602 63.4261 19.0328 63.6013 18.5783 63.9517C18.1238 64.3021 17.8042 64.6761 17.6195 65.0739L16.0286 64.5057C16.3127 63.8428 16.6915 63.3267 17.165 62.9574C17.6432 62.5833 18.164 62.3229 18.7275 62.1761C19.2956 62.0246 19.8543 61.9489 20.4036 61.9489C20.754 61.9489 21.1564 61.9915 21.611 62.0767C22.0703 62.1572 22.513 62.3253 22.9391 62.581C23.37 62.8366 23.7275 63.2225 24.0115 63.7386C24.2956 64.2547 24.4377 64.946 24.4377 65.8125V73H22.7615V71.5227H22.6763C22.5627 71.7595 22.3733 72.0128 22.1081 72.2827C21.843 72.5526 21.4902 72.7822 21.0499 72.9716C20.6096 73.161 20.0721 73.2557 19.4377 73.2557ZM19.6934 71.75C20.3562 71.75 20.915 71.6198 21.3695 71.3594C21.8288 71.099 22.1744 70.7628 22.4064 70.3509C22.6432 69.9389 22.7615 69.5057 22.7615 69.0511V67.517C22.6905 67.6023 22.5343 67.6804 22.2928 67.7514C22.056 67.8177 21.7814 67.8769 21.4689 67.929C21.1612 67.9763 20.8605 68.0189 20.5669 68.0568C20.2781 68.09 20.0437 68.1184 19.8638 68.142C19.4282 68.1989 19.021 68.2912 18.6422 68.419C18.2682 68.5421 17.9651 68.7292 17.7331 68.9801C17.5059 69.2263 17.3922 69.5625 17.3922 69.9886C17.3922 70.571 17.6077 71.0114 18.0385 71.3097C18.4741 71.6032 19.0257 71.75 19.6934 71.75ZM27.497 73V62.0909H29.1163V63.7955H29.2583C29.4856 63.2131 29.8526 62.7609 30.3592 62.4389C30.8658 62.1122 31.4743 61.9489 32.1845 61.9489C32.9042 61.9489 33.5031 62.1122 33.9814 62.4389C34.4643 62.7609 34.8407 63.2131 35.1106 63.7955H35.2243C35.5036 63.232 35.9226 62.7846 36.4814 62.4531C37.0401 62.117 37.7101 61.9489 38.4913 61.9489C39.4667 61.9489 40.2645 62.2543 40.8848 62.8651C41.505 63.4711 41.8152 64.4157 41.8152 65.6989V73H40.139V65.6989C40.139 64.8939 39.9189 64.3187 39.4785 63.973C39.0382 63.6274 38.5197 63.4545 37.9231 63.4545C37.1561 63.4545 36.5618 63.6866 36.1404 64.1506C35.719 64.6098 35.5083 65.1922 35.5083 65.8977V73H33.8038V65.5284C33.8038 64.9081 33.6026 64.4086 33.2001 64.0298C32.7976 63.6463 32.2792 63.4545 31.6447 63.4545C31.2091 63.4545 30.8019 63.5705 30.4231 63.8026C30.0491 64.0346 29.746 64.3565 29.514 64.7685C29.2868 65.1757 29.1731 65.6468 29.1731 66.1818V73H27.497ZM48.09 73.2557C47.3987 73.2557 46.7714 73.1255 46.2079 72.8651C45.6445 72.5999 45.197 72.2188 44.8656 71.7216C44.5342 71.2197 44.3684 70.6136 44.3684 69.9034C44.3684 69.2784 44.4915 68.7718 44.7377 68.3835C44.984 67.9905 45.313 67.6828 45.725 67.4602C46.1369 67.2377 46.5914 67.072 47.0886 66.9631C47.5905 66.8494 48.0948 66.7595 48.6014 66.6932C49.2643 66.608 49.8017 66.544 50.2136 66.5014C50.6303 66.4541 50.9333 66.3759 51.1227 66.267C51.3168 66.1581 51.4139 65.9687 51.4139 65.6989V65.642C51.4139 64.9413 51.2221 64.3968 50.8386 64.0085C50.4598 63.6203 49.8845 63.4261 49.1127 63.4261C48.3126 63.4261 47.6852 63.6013 47.2306 63.9517C46.7761 64.3021 46.4565 64.6761 46.2718 65.0739L44.6809 64.5057C44.965 63.8428 45.3438 63.3267 45.8173 62.9574C46.2955 62.5833 46.8163 62.3229 47.3798 62.1761C47.948 62.0246 48.5067 61.9489 49.0559 61.9489C49.4063 61.9489 49.8088 61.9915 50.2633 62.0767C50.7226 62.1572 51.1653 62.3253 51.5914 62.581C52.0223 62.8366 52.3798 63.2225 52.6639 63.7386C52.948 64.2547 53.09 64.946 53.09 65.8125V73H51.4139V71.5227H51.3287C51.215 71.7595 51.0256 72.0128 50.7605 72.2827C50.4953 72.5526 50.1426 72.7822 49.7022 72.9716C49.2619 73.161 48.7245 73.2557 48.09 73.2557ZM48.3457 71.75C49.0086 71.75 49.5673 71.6198 50.0218 71.3594C50.4811 71.099 50.8268 70.7628 51.0588 70.3509C51.2955 69.9389 51.4139 69.5057 51.4139 69.0511V67.517C51.3429 67.6023 51.1866 67.6804 50.9451 67.7514C50.7084 67.8177 50.4338 67.8769 50.1213 67.929C49.8135 67.9763 49.5128 68.0189 49.2193 68.0568C48.9305 68.09 48.6961 68.1184 48.5162 68.142C48.0806 68.1989 47.6734 68.2912 47.2946 68.419C46.9205 68.5421 46.6175 68.7292 46.3855 68.9801C46.1582 69.2263 46.0446 69.5625 46.0446 69.9886C46.0446 70.571 46.26 71.0114 46.6909 71.3097C47.1265 71.6032 47.6781 71.75 48.3457 71.75ZM56.1493 73V62.0909H57.7686V63.7386H57.8823C58.0811 63.1989 58.441 62.7609 58.9618 62.4247C59.4827 62.0885 60.0698 61.9205 60.7232 61.9205C60.8463 61.9205 61.0002 61.9228 61.1848 61.9276C61.3695 61.9323 61.5092 61.9394 61.6039 61.9489V63.6534C61.5471 63.6392 61.4168 63.6179 61.2132 63.5895C61.0144 63.5563 60.8037 63.5398 60.5811 63.5398C60.0508 63.5398 59.5774 63.651 59.1607 63.8736C58.7488 64.0914 58.4221 64.3944 58.1806 64.7827C57.9438 65.1662 57.8255 65.6042 57.8255 66.0966V73H56.1493ZM66.801 73.2557C66.1097 73.2557 65.4823 73.1255 64.9189 72.8651C64.3554 72.5999 63.908 72.2188 63.5765 71.7216C63.2451 71.2197 63.0794 70.6136 63.0794 69.9034C63.0794 69.2784 63.2025 68.7718 63.4487 68.3835C63.6949 67.9905 64.024 67.6828 64.4359 67.4602C64.8478 67.2377 65.3024 67.072 65.7995 66.9631C66.3014 66.8494 66.8057 66.7595 67.3123 66.6932C67.9752 66.608 68.5126 66.544 68.9245 66.5014C69.3412 66.4541 69.6442 66.3759 69.8336 66.267C70.0278 66.1581 70.1248 65.9687 70.1248 65.6989V65.642C70.1248 64.9413 69.9331 64.3968 69.5495 64.0085C69.1708 63.6203 68.5955 63.4261 67.8237 63.4261C67.0235 63.4261 66.3961 63.6013 65.9416 63.9517C65.487 64.3021 65.1674 64.6761 64.9828 65.0739L63.3919 64.5057C63.676 63.8428 64.0547 63.3267 64.5282 62.9574C65.0065 62.5833 65.5273 62.3229 66.0907 62.1761C66.6589 62.0246 67.2176 61.9489 67.7669 61.9489C68.1172 61.9489 68.5197 61.9915 68.9743 62.0767C69.4335 62.1572 69.8762 62.3253 70.3024 62.581C70.7333 62.8366 71.0907 63.2225 71.3748 63.7386C71.6589 64.2547 71.801 64.946 71.801 65.8125V73H70.1248V71.5227H70.0396C69.926 71.7595 69.7366 72.0128 69.4714 72.2827C69.2063 72.5526 68.8535 72.7822 68.4132 72.9716C67.9728 73.161 67.4354 73.2557 66.801 73.2557ZM67.0566 71.75C67.7195 71.75 68.2782 71.6198 68.7328 71.3594C69.1921 71.099 69.5377 70.7628 69.7697 70.3509C70.0065 69.9389 70.1248 69.5057 70.1248 69.0511V67.517C70.0538 67.6023 69.8975 67.6804 69.6561 67.7514C69.4193 67.8177 69.1447 67.8769 68.8322 67.929C68.5244 67.9763 68.2238 68.0189 67.9302 68.0568C67.6414 68.09 67.407 68.1184 67.2271 68.142C66.7915 68.1989 66.3843 68.2912 66.0055 68.419C65.6315 68.5421 65.3284 68.7292 65.0964 68.9801C64.8691 69.2263 64.7555 69.5625 64.7555 69.9886C64.7555 70.571 64.9709 71.0114 65.4018 71.3097C65.8374 71.6032 66.389 71.75 67.0566 71.75ZM76.5364 66.4375V73H74.8603V62.0909H76.4796V63.7955H76.6216C76.8773 63.2415 77.2656 62.7964 77.7864 62.4602C78.3072 62.1193 78.9796 61.9489 79.8034 61.9489C80.5421 61.9489 81.1884 62.1004 81.7424 62.4034C82.2963 62.7017 82.7272 63.1562 83.035 63.767C83.3427 64.3731 83.4966 65.1402 83.4966 66.0682V73H81.8205V66.1818C81.8205 65.3248 81.598 64.6572 81.1529 64.179C80.7078 63.696 80.097 63.4545 79.3205 63.4545C78.7855 63.4545 78.3072 63.5705 77.8858 63.8026C77.4692 64.0346 77.1401 64.3731 76.8986 64.8182C76.6571 65.2633 76.5364 65.803 76.5364 66.4375ZM93.0083 73H91.1618L96.5027 58.4545H98.3208L103.662 73H101.815L97.4686 60.7557H97.3549L93.0083 73ZM93.6902 67.3182H101.133V68.8807H93.6902V67.3182ZM107.376 66.4375V73H105.7V62.0909H107.319V63.7955H107.461C107.717 63.2415 108.105 62.7964 108.626 62.4602C109.147 62.1193 109.819 61.9489 110.643 61.9489C111.382 61.9489 112.028 62.1004 112.582 62.4034C113.136 62.7017 113.567 63.1562 113.875 63.767C114.183 64.3731 114.336 65.1402 114.336 66.0682V73H112.66V66.1818C112.66 65.3248 112.438 64.6572 111.993 64.179C111.548 63.696 110.937 63.4545 110.16 63.4545C109.625 63.4545 109.147 63.5705 108.726 63.8026C108.309 64.0346 107.98 64.3731 107.738 64.8182C107.497 65.2633 107.376 65.803 107.376 66.4375ZM121.519 73.2273C120.61 73.2273 119.807 72.9976 119.111 72.5384C118.415 72.0743 117.87 71.4209 117.477 70.5781C117.084 69.7306 116.888 68.7292 116.888 67.5739C116.888 66.428 117.084 65.4337 117.477 64.5909C117.87 63.7481 118.417 63.0971 119.118 62.6378C119.819 62.1785 120.628 61.9489 121.547 61.9489C122.257 61.9489 122.818 62.0672 123.23 62.304C123.647 62.536 123.964 62.8011 124.182 63.0994C124.405 63.393 124.577 63.6345 124.7 63.8239H124.843V58.4545H126.519V73H124.899V71.3239H124.7C124.577 71.5227 124.402 71.7737 124.175 72.0767C123.948 72.375 123.623 72.6425 123.202 72.8793C122.78 73.1113 122.219 73.2273 121.519 73.2273ZM121.746 71.7216C122.418 71.7216 122.986 71.5464 123.45 71.196C123.914 70.8409 124.267 70.3509 124.509 69.7259C124.75 69.0961 124.871 68.3693 124.871 67.5455C124.871 66.7311 124.753 66.0185 124.516 65.4077C124.279 64.7921 123.929 64.3139 123.465 63.973C123.001 63.6274 122.428 63.4545 121.746 63.4545C121.036 63.4545 120.444 63.6368 119.97 64.0014C119.502 64.3613 119.149 64.8513 118.912 65.4716C118.68 66.0871 118.564 66.7784 118.564 67.5455C118.564 68.322 118.682 69.0275 118.919 69.6619C119.161 70.2917 119.516 70.7936 119.985 71.1676C120.458 71.5369 121.045 71.7216 121.746 71.7216ZM133.031 73.2557C132.34 73.2557 131.713 73.1255 131.149 72.8651C130.586 72.5999 130.138 72.2188 129.807 71.7216C129.476 71.2197 129.31 70.6136 129.31 69.9034C129.31 69.2784 129.433 68.7718 129.679 68.3835C129.925 67.9905 130.254 67.6828 130.666 67.4602C131.078 67.2377 131.533 67.072 132.03 66.9631C132.532 66.8494 133.036 66.7595 133.543 66.6932C134.206 66.608 134.743 66.544 135.155 66.5014C135.572 66.4541 135.875 66.3759 136.064 66.267C136.258 66.1581 136.355 65.9687 136.355 65.6989V65.642C136.355 64.9413 136.164 64.3968 135.78 64.0085C135.401 63.6203 134.826 63.4261 134.054 63.4261C133.254 63.4261 132.627 63.6013 132.172 63.9517C131.718 64.3021 131.398 64.6761 131.213 65.0739L129.622 64.5057C129.906 63.8428 130.285 63.3267 130.759 62.9574C131.237 62.5833 131.758 62.3229 132.321 62.1761C132.889 62.0246 133.448 61.9489 133.997 61.9489C134.348 61.9489 134.75 61.9915 135.205 62.0767C135.664 62.1572 136.107 62.3253 136.533 62.581C136.964 62.8366 137.321 63.2225 137.605 63.7386C137.889 64.2547 138.031 64.946 138.031 65.8125V73H136.355V71.5227H136.27C136.156 71.7595 135.967 72.0128 135.702 72.2827C135.437 72.5526 135.084 72.7822 134.644 72.9716C134.203 73.161 133.666 73.2557 133.031 73.2557ZM133.287 71.75C133.95 71.75 134.509 71.6198 134.963 71.3594C135.423 71.099 135.768 70.7628 136 70.3509C136.237 69.9389 136.355 69.5057 136.355 69.0511V67.517C136.284 67.6023 136.128 67.6804 135.887 67.7514C135.65 67.8177 135.375 67.8769 135.063 67.929C134.755 67.9763 134.454 68.0189 134.161 68.0568C133.872 68.09 133.637 68.1184 133.458 68.142C133.022 68.1989 132.615 68.2912 132.236 68.419C131.862 68.5421 131.559 68.7292 131.327 68.9801C131.1 69.2263 130.986 69.5625 130.986 69.9886C130.986 70.571 131.201 71.0114 131.632 71.3097C132.068 71.6032 132.619 71.75 133.287 71.75Z" fill="black"/>
</svg>
