<svg width="102" height="121" viewBox="0 0 102 121" fill="none" xmlns="http://www.w3.org/2000/svg">
<path d="M23.9176 115V97.5455H30.3097C31.5483 97.5455 32.5739 97.75 33.3864 98.1591C34.1989 98.5625 34.8068 99.1108 35.2102 99.804C35.6136 100.491 35.8153 101.267 35.8153 102.131C35.8153 102.858 35.6818 103.472 35.4148 103.972C35.1477 104.466 34.7898 104.864 34.3409 105.165C33.8977 105.46 33.4091 105.676 32.875 105.812V105.983C33.4545 106.011 34.0199 106.199 34.571 106.545C35.1278 106.886 35.5881 107.372 35.9517 108.003C36.3153 108.634 36.4972 109.401 36.4972 110.304C36.4972 111.196 36.2869 111.997 35.8665 112.707C35.4517 113.412 34.8097 113.972 33.9403 114.386C33.071 114.795 31.9602 115 30.608 115H23.9176ZM26.5511 112.741H30.3523C31.6136 112.741 32.517 112.497 33.0625 112.009C33.608 111.52 33.8807 110.909 33.8807 110.176C33.8807 109.625 33.7415 109.119 33.4631 108.659C33.1847 108.199 32.7869 107.832 32.2699 107.56C31.7585 107.287 31.1506 107.151 30.446 107.151H26.5511V112.741ZM26.5511 105.097H30.0795C30.6705 105.097 31.2017 104.983 31.6733 104.756C32.1506 104.528 32.5284 104.21 32.8068 103.801C33.0909 103.386 33.233 102.898 33.233 102.335C33.233 101.614 32.9801 101.009 32.4744 100.52C31.9688 100.031 31.1932 99.7869 30.1477 99.7869H26.5511V105.097ZM47.7088 109.571V101.909H50.2656V115H47.7599V112.733H47.6236C47.3224 113.432 46.8395 114.014 46.1747 114.48C45.5156 114.94 44.6946 115.17 43.7116 115.17C42.8707 115.17 42.1264 114.986 41.4787 114.616C40.8366 114.241 40.331 113.688 39.9616 112.955C39.598 112.222 39.4162 111.315 39.4162 110.236V101.909H41.9645V109.929C41.9645 110.821 42.2116 111.531 42.706 112.06C43.2003 112.588 43.8423 112.852 44.6321 112.852C45.1094 112.852 45.5838 112.733 46.0554 112.494C46.5327 112.256 46.9276 111.895 47.2401 111.412C47.5582 110.929 47.7145 110.315 47.7088 109.571ZM56.0334 110.56L56.0163 107.449H56.4595L61.6754 101.909H64.7266L58.7777 108.216H58.3771L56.0334 110.56ZM53.6896 115V97.5455H56.2379V115H53.6896ZM61.9567 115L57.2692 108.778L59.0249 106.997L65.0845 115H61.9567ZM70.8587 115.29C70.0291 115.29 69.2791 115.136 68.6087 114.83C67.9382 114.517 67.407 114.065 67.0149 113.474C66.6286 112.884 66.4354 112.159 66.4354 111.301C66.4354 110.562 66.5774 109.955 66.8615 109.477C67.1456 109 67.5291 108.622 68.0121 108.344C68.495 108.065 69.0348 107.855 69.6314 107.713C70.228 107.571 70.8359 107.463 71.4553 107.389C72.2393 107.298 72.8757 107.224 73.3643 107.168C73.853 107.105 74.2081 107.006 74.4297 106.869C74.6513 106.733 74.7621 106.511 74.7621 106.205V106.145C74.7621 105.401 74.5518 104.824 74.1314 104.415C73.7166 104.006 73.0973 103.801 72.2734 103.801C71.4155 103.801 70.7393 103.991 70.245 104.372C69.7564 104.747 69.4183 105.165 69.2308 105.625L66.8359 105.08C67.12 104.284 67.5348 103.642 68.0803 103.153C68.6314 102.659 69.2649 102.301 69.9808 102.08C70.6967 101.852 71.4496 101.739 72.2393 101.739C72.7621 101.739 73.3161 101.801 73.9013 101.926C74.4922 102.045 75.0433 102.267 75.5547 102.591C76.0717 102.915 76.495 103.378 76.8246 103.98C77.1541 104.577 77.3189 105.352 77.3189 106.307V115H74.8303V113.21H74.728C74.5632 113.54 74.3161 113.864 73.9865 114.182C73.657 114.5 73.2337 114.764 72.7166 114.974C72.1996 115.185 71.5803 115.29 70.8587 115.29ZM71.4126 113.244C72.1172 113.244 72.7195 113.105 73.2195 112.827C73.7251 112.548 74.1087 112.185 74.37 111.736C74.6371 111.281 74.7706 110.795 74.7706 110.278V108.591C74.6797 108.682 74.5036 108.767 74.2422 108.847C73.9865 108.92 73.6939 108.986 73.3643 109.043C73.0348 109.094 72.7138 109.142 72.4013 109.188C72.0888 109.227 71.8274 109.261 71.6172 109.29C71.1229 109.352 70.6712 109.457 70.2621 109.605C69.8587 109.753 69.5348 109.966 69.2905 110.244C69.0518 110.517 68.9325 110.881 68.9325 111.335C68.9325 111.966 69.1655 112.443 69.6314 112.767C70.0973 113.085 70.6911 113.244 71.4126 113.244Z" fill="#11EF57"/>
<path d="M46.75 55.25C47.9542 55.25 48.9643 54.842 49.7803 54.026C50.5963 53.21 51.0028 52.2013 51 51C50.9972 49.7987 50.5892 48.79 49.776 47.974C48.9628 47.158 47.9542 46.75 46.75 46.75C45.5458 46.75 44.5372 47.158 43.724 47.974C42.9108 48.79 42.5028 49.7987 42.5 51C42.4972 52.2013 42.9052 53.2114 43.724 54.0303C44.5428 54.8491 45.5515 55.2557 46.75 55.25ZM29.75 89.25V80.75L55.25 76.5V29.2188C55.25 28.1562 54.9312 27.2 54.2937 26.35C53.6562 25.5 52.8417 25.0042 51.85 24.8625L29.75 21.25V12.75L53.125 16.575C56.2417 17.1417 58.7917 18.5938 60.775 20.9313C62.7583 23.2688 63.75 25.9958 63.75 29.1125V83.5125L29.75 89.25ZM12.75 89.25V80.75H21.25V21.25C21.25 18.8417 22.083 16.8229 23.749 15.1938C25.415 13.5646 27.4153 12.75 29.75 12.75H72.25C74.6583 12.75 76.6771 13.5646 78.3062 15.1938C79.9354 16.8229 80.75 18.8417 80.75 21.25V80.75H89.25V89.25H12.75ZM29.75 80.75H72.25V21.25H29.75V80.75Z" fill="#11EF57"/>
</svg>
