<svg width="116" height="107" viewBox="0 0 116 107" fill="none" xmlns="http://www.w3.org/2000/svg">
<path d="M39.25 0C38.2554 0 37.3016 0.395088 36.5983 1.09835C35.8951 1.80161 35.5 2.75544 35.5 3.75V56.25C35.5 57.2446 35.8951 58.1984 36.5983 58.9016C37.3016 59.6049 38.2554 60 39.25 60H50.5V46.875C50.5 46.3777 50.6975 45.9008 51.0492 45.5492C51.4008 45.1975 51.8777 45 52.375 45H63.625C64.1223 45 64.5992 45.1975 64.9508 45.5492C65.3025 45.9008 65.5 46.3777 65.5 46.875V60H76.75C77.7446 60 78.6984 59.6049 79.4016 58.9016C80.1049 58.1984 80.5 57.2446 80.5 56.25V3.75C80.5 2.75544 80.1049 1.80161 79.4016 1.09835C78.6984 0.395088 77.7446 0 76.75 0L39.25 0ZM43 9.375C43 8.87772 43.1975 8.40081 43.5492 8.04918C43.9008 7.69754 44.3777 7.5 44.875 7.5H48.625C49.1223 7.5 49.5992 7.69754 49.9508 8.04918C50.3025 8.40081 50.5 8.87772 50.5 9.375V13.125C50.5 13.6223 50.3025 14.0992 49.9508 14.4508C49.5992 14.8025 49.1223 15 48.625 15H44.875C44.3777 15 43.9008 14.8025 43.5492 14.4508C43.1975 14.0992 43 13.6223 43 13.125V9.375ZM54.25 9.375C54.25 8.87772 54.4475 8.40081 54.7992 8.04918C55.1508 7.69754 55.6277 7.5 56.125 7.5H59.875C60.3723 7.5 60.8492 7.69754 61.2008 8.04918C61.5525 8.40081 61.75 8.87772 61.75 9.375V13.125C61.75 13.6223 61.5525 14.0992 61.2008 14.4508C60.8492 14.8025 60.3723 15 59.875 15H56.125C55.6277 15 55.1508 14.8025 54.7992 14.4508C54.4475 14.0992 54.25 13.6223 54.25 13.125V9.375ZM67.375 7.5H71.125C71.6223 7.5 72.0992 7.69754 72.4508 8.04918C72.8025 8.40081 73 8.87772 73 9.375V13.125C73 13.6223 72.8025 14.0992 72.4508 14.4508C72.0992 14.8025 71.6223 15 71.125 15H67.375C66.8777 15 66.4008 14.8025 66.0492 14.4508C65.6975 14.0992 65.5 13.6223 65.5 13.125V9.375C65.5 8.87772 65.6975 8.40081 66.0492 8.04918C66.4008 7.69754 66.8777 7.5 67.375 7.5ZM43 20.625C43 20.1277 43.1975 19.6508 43.5492 19.2992C43.9008 18.9475 44.3777 18.75 44.875 18.75H48.625C49.1223 18.75 49.5992 18.9475 49.9508 19.2992C50.3025 19.6508 50.5 20.1277 50.5 20.625V24.375C50.5 24.8723 50.3025 25.3492 49.9508 25.7008C49.5992 26.0525 49.1223 26.25 48.625 26.25H44.875C44.3777 26.25 43.9008 26.0525 43.5492 25.7008C43.1975 25.3492 43 24.8723 43 24.375V20.625ZM56.125 18.75H59.875C60.3723 18.75 60.8492 18.9475 61.2008 19.2992C61.5525 19.6508 61.75 20.1277 61.75 20.625V24.375C61.75 24.8723 61.5525 25.3492 61.2008 25.7008C60.8492 26.0525 60.3723 26.25 59.875 26.25H56.125C55.6277 26.25 55.1508 26.0525 54.7992 25.7008C54.4475 25.3492 54.25 24.8723 54.25 24.375V20.625C54.25 20.1277 54.4475 19.6508 54.7992 19.2992C55.1508 18.9475 55.6277 18.75 56.125 18.75ZM65.5 20.625C65.5 20.1277 65.6975 19.6508 66.0492 19.2992C66.4008 18.9475 66.8777 18.75 67.375 18.75H71.125C71.6223 18.75 72.0992 18.9475 72.4508 19.2992C72.8025 19.6508 73 20.1277 73 20.625V24.375C73 24.8723 72.8025 25.3492 72.4508 25.7008C72.0992 26.0525 71.6223 26.25 71.125 26.25H67.375C66.8777 26.25 66.4008 26.0525 66.0492 25.7008C65.6975 25.3492 65.5 24.8723 65.5 24.375V20.625ZM44.875 30H48.625C49.1223 30 49.5992 30.1975 49.9508 30.5492C50.3025 30.9008 50.5 31.3777 50.5 31.875V35.625C50.5 36.1223 50.3025 36.5992 49.9508 36.9508C49.5992 37.3025 49.1223 37.5 48.625 37.5H44.875C44.3777 37.5 43.9008 37.3025 43.5492 36.9508C43.1975 36.5992 43 36.1223 43 35.625V31.875C43 31.3777 43.1975 30.9008 43.5492 30.5492C43.9008 30.1975 44.3777 30 44.875 30ZM54.25 31.875C54.25 31.3777 54.4475 30.9008 54.7992 30.5492C55.1508 30.1975 55.6277 30 56.125 30H59.875C60.3723 30 60.8492 30.1975 61.2008 30.5492C61.5525 30.9008 61.75 31.3777 61.75 31.875V35.625C61.75 36.1223 61.5525 36.5992 61.2008 36.9508C60.8492 37.3025 60.3723 37.5 59.875 37.5H56.125C55.6277 37.5 55.1508 37.3025 54.7992 36.9508C54.4475 36.5992 54.25 36.1223 54.25 35.625V31.875ZM67.375 30H71.125C71.6223 30 72.0992 30.1975 72.4508 30.5492C72.8025 30.9008 73 31.3777 73 31.875V35.625C73 36.1223 72.8025 36.5992 72.4508 36.9508C72.0992 37.3025 71.6223 37.5 71.125 37.5H67.375C66.8777 37.5 66.4008 37.3025 66.0492 36.9508C65.6975 36.5992 65.5 36.1223 65.5 35.625V31.875C65.5 31.3777 65.6975 30.9008 66.0492 30.5492C66.4008 30.1975 66.8777 30 67.375 30Z" fill="black"/>
<path d="M1.42152 79V64.4545H6.33629C7.47739 64.4545 8.41016 64.6605 9.13459 65.0724C9.86376 65.4796 10.4035 66.0312 10.7539 66.7273C11.1043 67.4233 11.2795 68.1998 11.2795 69.0568C11.2795 69.9138 11.1043 70.6927 10.7539 71.3935C10.4083 72.0942 9.87323 72.6529 9.14879 73.0696C8.42436 73.4815 7.49633 73.6875 6.3647 73.6875H2.84197V72.125H6.30788C7.08913 72.125 7.7165 71.9901 8.18999 71.7202C8.66347 71.4503 9.00675 71.0857 9.21982 70.6264C9.43762 70.1624 9.54652 69.6392 9.54652 69.0568C9.54652 68.4744 9.43762 67.9536 9.21982 67.4943C9.00675 67.035 8.6611 66.6752 8.18288 66.4148C7.70466 66.1496 7.07019 66.017 6.27947 66.017H3.18288V79H1.42152ZM18.3462 79.2273C17.2951 79.2273 16.3884 78.9953 15.6261 78.5312C14.8685 78.0625 14.2837 77.4091 13.8718 76.571C13.4646 75.7282 13.261 74.7481 13.261 73.6307C13.261 72.5133 13.4646 71.5284 13.8718 70.6761C14.2837 69.8191 14.8567 69.1515 15.5906 68.6733C16.3292 68.1903 17.1909 67.9489 18.1758 67.9489C18.744 67.9489 19.305 68.0436 19.859 68.233C20.413 68.4223 20.9173 68.7301 21.3718 69.1562C21.8263 69.5777 22.1886 70.1364 22.4585 70.8324C22.7283 71.5284 22.8633 72.3854 22.8633 73.4034V74.1136H14.4542V72.6648H21.1587C21.1587 72.0492 21.0356 71.5 20.7894 71.017C20.5479 70.5341 20.2023 70.1529 19.7525 69.8736C19.3074 69.5942 18.7818 69.4545 18.1758 69.4545C17.5082 69.4545 16.9305 69.6203 16.4428 69.9517C15.9599 70.2784 15.5882 70.7045 15.3278 71.2301C15.0674 71.7557 14.9371 72.3191 14.9371 72.9205V73.8864C14.9371 74.7102 15.0792 75.4086 15.3633 75.9815C15.6521 76.5497 16.0522 76.983 16.5636 77.2812C17.0749 77.5748 17.6692 77.7216 18.3462 77.7216C18.7866 77.7216 19.1843 77.66 19.5394 77.5369C19.8993 77.4091 20.2094 77.2197 20.4698 76.9688C20.7302 76.7131 20.9315 76.3958 21.0735 76.017L22.6928 76.4716C22.5224 77.0208 22.2359 77.5038 21.8335 77.9205C21.431 78.3324 20.9338 78.6544 20.342 78.8864C19.7501 79.1136 19.0849 79.2273 18.3462 79.2273ZM25.413 79V68.0909H27.0323V69.7386H27.146C27.3448 69.1989 27.7047 68.7609 28.2255 68.4247C28.7463 68.0885 29.3335 67.9205 29.9869 67.9205C30.11 67.9205 30.2638 67.9228 30.4485 67.9276C30.6332 67.9323 30.7728 67.9394 30.8675 67.9489V69.6534C30.8107 69.6392 30.6805 69.6179 30.4769 69.5895C30.2781 69.5563 30.0674 69.5398 29.8448 69.5398C29.3145 69.5398 28.841 69.651 28.4244 69.8736C28.0124 70.0914 27.6857 70.3944 27.4442 70.7827C27.2075 71.1662 27.0891 71.6042 27.0891 72.0966V79H25.413ZM39.7294 74.5398V68.0909H41.4055V79H39.7294V77.1534H39.6158C39.3601 77.7074 38.9624 78.1785 38.4226 78.5668C37.8828 78.9503 37.201 79.142 36.3771 79.142C35.6953 79.142 35.0893 78.9929 34.5589 78.6946C34.0286 78.3916 33.612 77.937 33.3089 77.331C33.0059 76.7202 32.8544 75.9508 32.8544 75.0227V68.0909H34.5305V74.9091C34.5305 75.7045 34.7531 76.339 35.1982 76.8125C35.648 77.286 36.2209 77.5227 36.9169 77.5227C37.3336 77.5227 37.7573 77.4162 38.1882 77.2031C38.6238 76.9901 38.9884 76.6634 39.282 76.223C39.5803 75.7827 39.7294 75.2216 39.7294 74.5398ZM52.2028 70.5341L50.6971 70.9602C50.6024 70.7093 50.4627 70.4654 50.2781 70.2287C50.0981 69.9872 49.8519 69.7884 49.5394 69.6321C49.2269 69.4759 48.8268 69.3977 48.3391 69.3977C47.6715 69.3977 47.1152 69.5516 46.6701 69.8594C46.2298 70.1624 46.0096 70.5483 46.0096 71.017C46.0096 71.4337 46.1611 71.7628 46.4641 72.0043C46.7672 72.2457 47.2406 72.447 47.8846 72.608L49.5039 73.0057C50.4793 73.2424 51.2061 73.6046 51.6843 74.0923C52.1625 74.5753 52.4016 75.1979 52.4016 75.9602C52.4016 76.5852 52.2217 77.1439 51.8619 77.6364C51.5067 78.1288 51.0096 78.517 50.3704 78.8011C49.7312 79.0852 48.9878 79.2273 48.1403 79.2273C47.0276 79.2273 46.1067 78.9858 45.3775 78.5028C44.6483 78.0199 44.1867 77.3144 43.9925 76.3864L45.5835 75.9886C45.735 76.5758 46.0214 77.0161 46.4428 77.3097C46.869 77.6032 47.4253 77.75 48.1119 77.75C48.8931 77.75 49.5134 77.5843 49.9727 77.2528C50.4367 76.9167 50.6687 76.5142 50.6687 76.0455C50.6687 75.6667 50.5361 75.3494 50.271 75.0938C50.0058 74.8333 49.5986 74.6392 49.0494 74.5114L47.2312 74.0852C46.2321 73.8485 45.4982 73.4815 45.0295 72.9844C44.5655 72.4825 44.3335 71.8551 44.3335 71.1023C44.3335 70.4867 44.5063 69.9422 44.8519 69.4688C45.2023 68.9953 45.6781 68.6236 46.2795 68.3537C46.8855 68.0838 47.5721 67.9489 48.3391 67.9489C49.4187 67.9489 50.2662 68.1856 50.8817 68.6591C51.502 69.1326 51.9424 69.7576 52.2028 70.5341ZM58.1349 79.2557C57.4437 79.2557 56.8163 79.1255 56.2528 78.8651C55.6894 78.5999 55.242 78.2188 54.9105 77.7216C54.5791 77.2197 54.4134 76.6136 54.4134 75.9034C54.4134 75.2784 54.5365 74.7718 54.7827 74.3835C55.0289 73.9905 55.358 73.6828 55.7699 73.4602C56.1818 73.2377 56.6364 73.072 57.1335 72.9631C57.6354 72.8494 58.1397 72.7595 58.6463 72.6932C59.3092 72.608 59.8466 72.544 60.2585 72.5014C60.6752 72.4541 60.9782 72.3759 61.1676 72.267C61.3617 72.1581 61.4588 71.9687 61.4588 71.6989V71.642C61.4588 70.9413 61.267 70.3968 60.8835 70.0085C60.5047 69.6203 59.9295 69.4261 59.1577 69.4261C58.3575 69.4261 57.7301 69.6013 57.2756 69.9517C56.821 70.3021 56.5014 70.6761 56.3168 71.0739L54.7259 70.5057C55.0099 69.8428 55.3887 69.3267 55.8622 68.9574C56.3404 68.5833 56.8613 68.3229 57.4247 68.1761C57.9929 68.0246 58.5516 67.9489 59.1009 67.9489C59.4512 67.9489 59.8537 67.9915 60.3082 68.0767C60.7675 68.1572 61.2102 68.3253 61.6364 68.581C62.0672 68.8366 62.4247 69.2225 62.7088 69.7386C62.9929 70.2547 63.1349 70.946 63.1349 71.8125V79H61.4588V77.5227H61.3736C61.2599 77.7595 61.0705 78.0128 60.8054 78.2827C60.5402 78.5526 60.1875 78.7822 59.7472 78.9716C59.3068 79.161 58.7694 79.2557 58.1349 79.2557ZM58.3906 77.75C59.0535 77.75 59.6122 77.6198 60.0668 77.3594C60.526 77.099 60.8717 76.7628 61.1037 76.3509C61.3404 75.9389 61.4588 75.5057 61.4588 75.0511V73.517C61.3878 73.6023 61.2315 73.6804 60.9901 73.7514C60.7533 73.8177 60.4787 73.8769 60.1662 73.929C59.8584 73.9763 59.5578 74.0189 59.2642 74.0568C58.9754 74.09 58.741 74.1184 58.5611 74.142C58.1255 74.1989 57.7183 74.2912 57.3395 74.419C56.9654 74.5421 56.6624 74.7292 56.4304 74.9801C56.2031 75.2263 56.0895 75.5625 56.0895 75.9886C56.0895 76.571 56.3049 77.0114 56.7358 77.3097C57.1714 77.6032 57.723 77.75 58.3906 77.75ZM67.8704 72.4375V79H66.1942V64.4545H67.8704V69.7955H68.0124C68.2681 69.232 68.6516 68.7846 69.163 68.4531C69.6791 68.117 70.3656 67.9489 71.2227 67.9489C71.966 67.9489 72.6171 68.098 73.1758 68.3963C73.7345 68.6899 74.1677 69.142 74.4755 69.7528C74.788 70.3589 74.9442 71.1307 74.9442 72.0682V79H73.2681V72.1818C73.2681 71.3153 73.0432 70.6454 72.5934 70.1719C72.1483 69.6937 71.5304 69.4545 70.7397 69.4545C70.1905 69.4545 69.698 69.5705 69.2624 69.8026C68.8316 70.0346 68.4906 70.3731 68.2397 70.8182C67.9935 71.2633 67.8704 71.803 67.8704 72.4375ZM81.2209 79.2557C80.5296 79.2557 79.9022 79.1255 79.3388 78.8651C78.7753 78.5999 78.3279 78.2188 77.9964 77.7216C77.665 77.2197 77.4993 76.6136 77.4993 75.9034C77.4993 75.2784 77.6224 74.7718 77.8686 74.3835C78.1148 73.9905 78.4439 73.6828 78.8558 73.4602C79.2678 73.2377 79.7223 73.072 80.2195 72.9631C80.7214 72.8494 81.2256 72.7595 81.7322 72.6932C82.3951 72.608 82.9325 72.544 83.3445 72.5014C83.7611 72.4541 84.0642 72.3759 84.2536 72.267C84.4477 72.1581 84.5447 71.9687 84.5447 71.6989V71.642C84.5447 70.9413 84.353 70.3968 83.9695 70.0085C83.5907 69.6203 83.0154 69.4261 82.2436 69.4261C81.4434 69.4261 80.8161 69.6013 80.3615 69.9517C79.907 70.3021 79.5874 70.6761 79.4027 71.0739L77.8118 70.5057C78.0959 69.8428 78.4747 69.3267 78.9482 68.9574C79.4264 68.5833 79.9472 68.3229 80.5107 68.1761C81.0788 68.0246 81.6375 67.9489 82.1868 67.9489C82.5372 67.9489 82.9396 67.9915 83.3942 68.0767C83.8535 68.1572 84.2962 68.3253 84.7223 68.581C85.1532 68.8366 85.5107 69.2225 85.7947 69.7386C86.0788 70.2547 86.2209 70.946 86.2209 71.8125V79H84.5447V77.5227H84.4595C84.3459 77.7595 84.1565 78.0128 83.8913 78.2827C83.6262 78.5526 83.2734 78.7822 82.8331 78.9716C82.3928 79.161 81.8554 79.2557 81.2209 79.2557ZM81.4766 77.75C82.1394 77.75 82.6982 77.6198 83.1527 77.3594C83.612 77.099 83.9576 76.7628 84.1896 76.3509C84.4264 75.9389 84.5447 75.5057 84.5447 75.0511V73.517C84.4737 73.6023 84.3175 73.6804 84.076 73.7514C83.8393 73.8177 83.5646 73.8769 83.2521 73.929C82.9444 73.9763 82.6437 74.0189 82.3501 74.0568C82.0613 74.09 81.8269 74.1184 81.647 74.142C81.2114 74.1989 80.8042 74.2912 80.4254 74.419C80.0514 74.5421 79.7483 74.7292 79.5163 74.9801C79.2891 75.2263 79.1754 75.5625 79.1754 75.9886C79.1754 76.571 79.3909 77.0114 79.8217 77.3097C80.2573 77.6032 80.8089 77.75 81.4766 77.75ZM92.4904 79.2557C91.7991 79.2557 91.1718 79.1255 90.6083 78.8651C90.0449 78.5999 89.5974 78.2188 89.266 77.7216C88.9345 77.2197 88.7688 76.6136 88.7688 75.9034C88.7688 75.2784 88.8919 74.7718 89.1381 74.3835C89.3844 73.9905 89.7134 73.6828 90.1254 73.4602C90.5373 73.2377 90.9918 73.072 91.489 72.9631C91.9909 72.8494 92.4951 72.7595 93.0018 72.6932C93.6647 72.608 94.2021 72.544 94.614 72.5014C95.0307 72.4541 95.3337 72.3759 95.5231 72.267C95.7172 72.1581 95.8143 71.9687 95.8143 71.6989V71.642C95.8143 70.9413 95.6225 70.3968 95.239 70.0085C94.8602 69.6203 94.2849 69.4261 93.5131 69.4261C92.7129 69.4261 92.0856 69.6013 91.631 69.9517C91.1765 70.3021 90.8569 70.6761 90.6722 71.0739L89.0813 70.5057C89.3654 69.8428 89.7442 69.3267 90.2177 68.9574C90.6959 68.5833 91.2167 68.3229 91.7802 68.1761C92.3484 68.0246 92.9071 67.9489 93.4563 67.9489C93.8067 67.9489 94.2092 67.9915 94.6637 68.0767C95.123 68.1572 95.5657 68.3253 95.9918 68.581C96.4227 68.8366 96.7802 69.2225 97.0643 69.7386C97.3484 70.2547 97.4904 70.946 97.4904 71.8125V79H95.8143V77.5227H95.729C95.6154 77.7595 95.426 78.0128 95.1609 78.2827C94.8957 78.5526 94.543 78.7822 94.1026 78.9716C93.6623 79.161 93.1249 79.2557 92.4904 79.2557ZM92.7461 77.75C93.409 77.75 93.9677 77.6198 94.4222 77.3594C94.8815 77.099 95.2272 76.7628 95.4592 76.3509C95.6959 75.9389 95.8143 75.5057 95.8143 75.0511V73.517C95.7433 73.6023 95.587 73.6804 95.3455 73.7514C95.1088 73.8177 94.8342 73.8769 94.5217 73.929C94.2139 73.9763 93.9132 74.0189 93.6197 74.0568C93.3308 74.09 93.0965 74.1184 92.9165 74.142C92.4809 74.1989 92.0737 74.2912 91.695 74.419C91.3209 74.5421 91.0179 74.7292 90.7859 74.9801C90.5586 75.2263 90.445 75.5625 90.445 75.9886C90.445 76.571 90.6604 77.0114 91.0913 77.3097C91.5269 77.6032 92.0785 77.75 92.7461 77.75ZM102.226 72.4375V79H100.55V68.0909H102.169V69.7955H102.311C102.567 69.2415 102.955 68.7964 103.476 68.4602C103.997 68.1193 104.669 67.9489 105.493 67.9489C106.232 67.9489 106.878 68.1004 107.432 68.4034C107.986 68.7017 108.417 69.1562 108.724 69.767C109.032 70.3731 109.186 71.1402 109.186 72.0682V79H107.51V72.1818C107.51 71.3248 107.287 70.6572 106.842 70.179C106.397 69.696 105.786 69.4545 105.01 69.4545C104.475 69.4545 103.997 69.5705 103.575 69.8026C103.159 70.0346 102.83 70.3731 102.588 70.8182C102.347 71.2633 102.226 71.803 102.226 72.4375ZM35.9048 103H34.0582L39.3991 88.4545H41.2173L46.5582 103H44.7116L40.3651 90.7557H40.2514L35.9048 103ZM36.5866 97.3182H44.0298V98.8807H36.5866V97.3182ZM50.2727 96.4375V103H48.5966V92.0909H50.2159V93.7955H50.358C50.6136 93.2415 51.0019 92.7964 51.5227 92.4602C52.0436 92.1193 52.7159 91.9489 53.5398 91.9489C54.2784 91.9489 54.9247 92.1004 55.4787 92.4034C56.0327 92.7017 56.4635 93.1562 56.7713 93.767C57.0791 94.3731 57.233 95.1402 57.233 96.0682V103H55.5568V96.1818C55.5568 95.3248 55.3343 94.6572 54.8892 94.179C54.4441 93.696 53.8333 93.4545 53.0568 93.4545C52.5218 93.4545 52.0436 93.5705 51.6222 93.8026C51.2055 94.0346 50.8764 94.3731 50.6349 94.8182C50.3935 95.2633 50.2727 95.803 50.2727 96.4375ZM64.4151 103.227C63.506 103.227 62.7035 102.998 62.0075 102.538C61.3114 102.074 60.7669 101.421 60.3739 100.578C59.9809 99.7306 59.7844 98.7292 59.7844 97.5739C59.7844 96.428 59.9809 95.4337 60.3739 94.5909C60.7669 93.7481 61.3138 93.0971 62.0146 92.6378C62.7153 92.1785 63.525 91.9489 64.4435 91.9489C65.1538 91.9489 65.7148 92.0672 66.1268 92.304C66.5434 92.536 66.8607 92.8011 67.0785 93.0994C67.301 93.393 67.4738 93.6345 67.5969 93.8239H67.739V88.4545H69.4151V103H67.7958V101.324H67.5969C67.4738 101.523 67.2987 101.774 67.0714 102.077C66.8441 102.375 66.5198 102.643 66.0984 102.879C65.677 103.111 65.1159 103.227 64.4151 103.227ZM64.6424 101.722C65.3147 101.722 65.8829 101.546 66.3469 101.196C66.811 100.841 67.1637 100.351 67.4052 99.7259C67.6467 99.0961 67.7674 98.3693 67.7674 97.5455C67.7674 96.7311 67.649 96.0185 67.4123 95.4077C67.1755 94.7921 66.8252 94.3139 66.3612 93.973C65.8971 93.6274 65.3242 93.4545 64.6424 93.4545C63.9322 93.4545 63.3403 93.6368 62.8668 94.0014C62.3981 94.3613 62.0453 94.8513 61.8086 95.4716C61.5766 96.0871 61.4606 96.7784 61.4606 97.5455C61.4606 98.322 61.579 99.0275 61.8157 99.6619C62.0572 100.292 62.4123 100.794 62.881 101.168C63.3545 101.537 63.9416 101.722 64.6424 101.722ZM75.9279 103.256C75.2366 103.256 74.6093 103.125 74.0458 102.865C73.4824 102.6 73.0349 102.219 72.7035 101.722C72.372 101.22 72.2063 100.614 72.2063 99.9034C72.2063 99.2784 72.3294 98.7718 72.5756 98.3835C72.8219 97.9905 73.1509 97.6828 73.5629 97.4602C73.9748 97.2377 74.4293 97.072 74.9265 96.9631C75.4284 96.8494 75.9326 96.7595 76.4393 96.6932C77.1022 96.608 77.6396 96.544 78.0515 96.5014C78.4682 96.4541 78.7712 96.3759 78.9606 96.267C79.1547 96.1581 79.2518 95.9687 79.2518 95.6989V95.642C79.2518 94.9413 79.06 94.3968 78.6765 94.0085C78.2977 93.6203 77.7224 93.4261 76.9506 93.4261C76.1504 93.4261 75.5231 93.6013 75.0685 93.9517C74.614 94.3021 74.2944 94.6761 74.1097 95.0739L72.5188 94.5057C72.8029 93.8428 73.1817 93.3267 73.6552 92.9574C74.1334 92.5833 74.6542 92.3229 75.2177 92.1761C75.7859 92.0246 76.3446 91.9489 76.8938 91.9489C77.2442 91.9489 77.6467 91.9915 78.1012 92.0767C78.5605 92.1572 79.0032 92.3253 79.4293 92.581C79.8602 92.8366 80.2177 93.2225 80.5018 93.7386C80.7859 94.2547 80.9279 94.946 80.9279 95.8125V103H79.2518V101.523H79.1665C79.0529 101.759 78.8635 102.013 78.5984 102.283C78.3332 102.553 77.9805 102.782 77.5401 102.972C77.0998 103.161 76.5624 103.256 75.9279 103.256ZM76.1836 101.75C76.8465 101.75 77.4052 101.62 77.8597 101.359C78.319 101.099 78.6647 100.763 78.8967 100.351C79.1334 99.9389 79.2518 99.5057 79.2518 99.0511V97.517C79.1808 97.6023 79.0245 97.6804 78.783 97.7514C78.5463 97.8177 78.2717 97.8769 77.9592 97.929C77.6514 97.9763 77.3507 98.0189 77.0572 98.0568C76.7683 98.09 76.534 98.1184 76.354 98.142C75.9184 98.1989 75.5112 98.2912 75.1325 98.419C74.7584 98.5421 74.4554 98.7292 74.2234 98.9801C73.9961 99.2263 73.8825 99.5625 73.8825 99.9886C73.8825 100.571 74.0979 101.011 74.5288 101.31C74.9644 101.603 75.516 101.75 76.1836 101.75Z" fill="black"/>
</svg>
