<svg width="50" height="50" viewBox="0 0 50 50" fill="none" xmlns="http://www.w3.org/2000/svg">
<path fill-rule="evenodd" clip-rule="evenodd" d="M31.1406 34.4562C27.9679 36.7935 24.0292 37.8457 20.1136 37.4019C16.1979 36.9581 12.5946 35.0512 10.0254 32.0631C7.45625 29.075 6.11103 25.2266 6.25923 21.2886C6.40744 17.3507 8.03814 13.6142 10.8246 10.8277C13.6111 8.04125 17.3476 6.41055 21.2855 6.26235C25.2234 6.11414 29.0719 7.45937 32.06 10.0285C35.0481 12.5977 36.955 16.201 37.3988 20.1167C37.8426 24.0323 36.7904 27.971 34.4531 31.1437L43.0625 39.75C43.2928 39.9646 43.4775 40.2233 43.6056 40.5108C43.7337 40.7983 43.8026 41.1087 43.8081 41.4234C43.8137 41.7381 43.7558 42.0506 43.6379 42.3425C43.52 42.6343 43.3446 42.8994 43.122 43.122C42.8994 43.3445 42.6343 43.52 42.3425 43.6379C42.0507 43.7557 41.7381 43.8136 41.4234 43.8081C41.1087 43.8025 40.7983 43.7337 40.5108 43.6056C40.2233 43.4775 39.9646 43.2928 39.75 43.0625L31.1406 34.4562ZM32.8125 21.875C32.8125 24.7758 31.6602 27.5578 29.609 29.609C27.5578 31.6601 24.7758 32.8125 21.875 32.8125C18.9742 32.8125 16.1922 31.6601 14.141 29.609C12.0898 27.5578 10.9375 24.7758 10.9375 21.875C10.9375 18.9742 12.0898 16.1922 14.141 14.141C16.1922 12.0898 18.9742 10.9375 21.875 10.9375C24.7758 10.9375 27.5578 12.0898 29.609 14.141C31.6602 16.1922 32.8125 18.9742 32.8125 21.875Z" fill="black"/>
</svg>
