<svg width="100" height="100" viewBox="0 0 100 100" fill="none" xmlns="http://www.w3.org/2000/svg">
<rect width="100" height="100" rx="25" fill="white"/>
<path d="M54.6667 48V31.3333C54.6667 30.4493 54.3155 29.6014 53.6904 28.9763C53.0652 28.3512 52.2174 28 51.3333 28C50.4493 28 49.6014 28.3512 48.9763 28.9763C48.3512 29.6014 48 30.4493 48 31.3333V48H31.3333C30.4493 48 29.6014 48.3512 28.9763 48.9763C28.3512 49.6014 28 50.4493 28 51.3333C28 52.2174 28.3512 53.0652 28.9763 53.6904C29.6014 54.3155 30.4493 54.6667 31.3333 54.6667H48V71.3333C48 72.2174 48.3512 73.0652 48.9763 73.6904C49.6014 74.3155 50.4493 74.6667 51.3333 74.6667C52.2174 74.6667 53.0652 74.3155 53.6904 73.6904C54.3155 73.0652 54.6667 72.2174 54.6667 71.3333V54.6667H71.3333C72.2174 54.6667 73.0652 54.3155 73.6904 53.6904C74.3155 53.0652 74.6667 52.2174 74.6667 51.3333C74.6667 50.4493 74.3155 49.6014 73.6904 48.9763C73.0652 48.3512 72.2174 48 71.3333 48H54.6667Z" fill="#699BF7"/>
</svg>
